<svg width="225" height="195" viewBox="0 0 225 195" fill="none" xmlns="http://www.w3.org/2000/svg">
<path d="M112.056 194.689C126.508 194.689 140.96 194.689 155.412 194.689C192.285 194.689 222.675 169.121 223.756 135.882C224.431 113.358 225.512 90.8333 222.405 68.3089C220.109 51.6287 215.111 35.679 205.522 21.0685C200.524 13.2763 194.311 6.33638 185.262 1.95326C174.186 -3.52564 164.904 2.87266 161.662 16.7526C161.122 18.9441 160.581 21.1357 160.176 23.3273C158.555 31.9717 158.42 40.8597 155.044 49.2607C150.992 59.1227 143.023 64.3581 131.677 65.2104C119.251 66.1844 109.121 62.6536 102.908 52.1828C98.9912 45.4864 97.6405 38.3029 96.2899 30.9977C95.0743 24.91 94.534 18.7006 91.6976 12.8565C88.5911 6.40352 77.9722 0.0933275 68.5643 5.11883C64.9175 7.06688 62.3512 10.1107 60.3252 13.3981C51.9511 27.6432 49.79 43.1059 48.5744 58.9339C48.4394 60.5167 49.3848 61.2472 50.6004 61.9777C69.915 74.6401 84.5022 90.955 95.0373 110.192C100.17 119.567 103.817 129.429 103.276 140.265C102.601 154.389 88.284 164.738 72.8864 162.303C64.9175 161.085 59.2447 156.824 54.5174 151.223C46.8186 142.091 42.9016 131.377 39.9302 120.419C35.473 104.104 33.7171 87.6677 33.7171 70.8657C33.7171 69.6482 34.2574 68.4306 32.7717 67.3348C25.343 62.3429 13.1869 64.1692 8.18947 71.2309C3.32708 78.2926 1.84139 86.2066 0.895928 94.3641C-0.589805 107.148 0.220606 119.932 0.220606 132.716C0.0855397 167.294 30.4755 194.567 68.8344 194.689C83.4216 194.689 97.7387 194.689 112.056 194.689ZM48.9796 76.5881C48.7095 77.8056 48.5744 78.2926 48.5744 78.6579C49.2498 96.1904 51.8161 113.479 58.4343 130.038C61.0006 136.369 64.1071 142.457 69.915 146.962C76.9385 152.562 87.2035 149.397 89.2295 141.117C90.1749 137.343 89.4996 133.569 88.4191 130.038C81.6658 108.609 67.2136 91.929 48.9796 76.5881Z" fill="#F0F1F4"/>
</svg>
