<svg width="433" height="211" viewBox="0 0 433 211" fill="none" xmlns="http://www.w3.org/2000/svg">
<path fill-rule="evenodd" clip-rule="evenodd" d="M55.4676 0.311446C30.4416 3.98799 9.81856 20.2998 2.25455 42.4009C0.0545514 48.8306 0.0185515 49.75 0.000551517 100.73C-0.0204485 158.998 0.534553 166.284 5.76756 176.432C12.3356 189.166 23.3106 199.254 36.6436 204.813C50.1526 210.445 53.9326 210.798 100.783 210.79C149 210.782 153.176 210.302 167.968 203.058C178.003 198.144 190.323 186.152 194.853 176.885C200.972 164.37 200.944 164.698 200.944 105.212C200.944 60.9211 200.677 49.9253 199.493 45.4918C194.168 25.5602 178.25 10.0133 155.468 2.49386C148.596 0.224787 147.646 0.179963 103.468 0.0265665C78.7176 -0.0590966 57.1176 0.069398 55.4676 0.311446ZM148.214 11.0462C166.943 14.9997 182.826 28.7436 188.073 45.5376C189.115 48.8725 189.968 54.3569 189.968 57.7247V63.8476L186.603 58.8811C178.064 46.2737 169.139 38.9774 158.547 35.9453C142.049 31.2209 131.392 41.864 127.089 67.3608C126.026 73.661 124.576 80.0817 123.867 81.6297C122.297 85.0592 118.251 87.2824 113.583 87.2824C105.332 87.2824 101.964 83.4884 99.4437 71.3551C96.3037 56.2395 94.8097 51.6864 91.7926 48.0407C85.6706 40.6428 72.8516 36.8219 62.9676 39.4485C52.7806 42.1569 43.8686 56.1748 40.4386 74.8862C39.5396 79.7869 38.6036 84.8221 38.3576 86.0772C37.9506 88.147 37.5656 88.2855 34.1886 87.5713C27.7976 86.2196 20.9716 86.9975 15.8096 89.6651L10.9676 92.1672V71.884C10.9676 49.8078 11.9096 44.3453 17.2966 35.1893C23.6086 24.4605 38.7696 14.0106 52.2606 11.0901C61.4666 9.0969 138.813 9.06203 148.214 11.0462ZM162.022 48.3057C177.408 58.1988 187.183 79.6116 190.046 109.694C191.396 123.878 190.479 156.386 188.521 163.782C184.482 179.033 172.775 190.929 155.088 197.756L148.468 200.311L104.026 200.631C65.8306 200.906 58.5566 200.723 52.2726 199.331C35.6056 195.637 21.9586 185.403 15.4236 171.695C10.6736 161.733 9.59656 153.957 10.2826 134.596C11.1376 110.487 13.7366 102.596 22.2066 98.3957C25.9086 96.5599 27.7746 96.2083 30.9596 96.7442C33.1856 97.1187 35.6036 98.0192 36.3326 98.7454C37.2206 99.6299 37.8626 104.284 38.2786 112.849C39.7326 142.788 49.7986 166.855 63.4676 173.074C73.9366 177.837 88.1196 172.649 91.9036 162.671C97.7467 147.269 81.6036 118.112 56.6916 99.0731L48.9156 93.1304L49.5146 87.9647C51.5026 70.8082 55.5086 58.9489 61.3706 52.8638C66.6736 47.3604 71.1196 46.3703 77.2506 49.3267C83.0156 52.1068 85.2186 56.3292 87.8766 69.6906C91.2156 86.4776 95.5947 93.1284 105.363 96.2492C110.637 97.9335 120.524 97.0211 125.746 94.3676C131.653 91.3664 134.753 86.1947 136.633 76.206C140.939 53.327 140.991 53.1586 144.972 49.1932C148.186 45.9918 149.376 45.4469 153.155 45.4469C156.324 45.4469 158.836 46.2568 162.022 48.3057ZM226.968 75.8753V101.322L233.218 101.026L239.468 100.73L239.735 75.5785L240.002 50.4274H233.485H226.968V75.8753ZM246.968 75.8275V101.228H253.444H259.921L260.194 84.0452L260.468 66.8627L273.301 84.0452L286.133 101.228H293.551H300.968V75.8275V50.4274H294.492H288.015L287.742 67.3767L287.468 84.327L274.712 67.3767L261.956 50.4274H254.462H246.968V75.8275ZM308.418 51.6924C308.15 52.3877 308.052 63.7061 308.199 76.8435L308.468 100.73L321.468 101.026C342.891 101.515 353.93 99.2265 359.656 93.1065C367.469 84.7574 368.015 68.7204 360.783 59.9818C354.656 52.5779 346.321 50.4274 323.753 50.4274C312.674 50.4274 308.782 50.7481 308.418 51.6924ZM345.731 63.753C350.418 66.1665 351.97 69.0471 351.953 75.3025C351.923 86.5433 347.973 89.2706 331.718 89.2726L320.968 89.2746V75.9938C320.968 68.6885 321.305 62.3624 321.718 61.9341C323.046 60.5545 342.363 62.0178 345.731 63.753ZM58.5496 114.321C75.1586 130.363 85.6476 151.785 81.0676 160.309C79.4966 163.232 76.0286 164.977 71.7886 164.977C67.1526 164.977 61.0406 158.29 57.2006 149.015C52.2336 137.019 47.0796 107.204 49.9726 107.204C50.6376 107.204 54.4966 110.406 58.5496 114.321ZM397.265 117.151C385.735 119.592 379.432 127.704 381.918 136.902C384.014 144.656 388.604 146.832 405.295 147.987C415.142 148.669 417.524 149.151 419.175 150.796C420.833 152.447 420.973 153.144 420.008 154.942C418.522 157.707 415.054 159.001 409.153 158.994C402.287 158.986 397.418 157.33 394.658 154.063L392.219 151.176L386.844 152.712C383.887 153.556 381.059 154.626 380.558 155.089C378.865 156.658 384.579 163.573 389.633 166.073C393.989 168.226 395.755 168.463 407.468 168.463C419.102 168.463 420.919 168.223 424.757 166.182C431.113 162.801 433.158 158.939 432.716 151.149C432.396 145.498 432.007 144.481 429.216 141.997C425.181 138.406 420.809 137.236 408.468 136.444C396.746 135.691 393.968 134.876 393.968 132.187C393.968 128.831 397.765 127.126 405.24 127.126C412.025 127.126 417.374 128.836 418.187 131.265C418.745 132.934 430.968 130.347 430.968 128.56C430.968 126.073 425.954 121.388 421.035 119.281C415.349 116.844 403.66 115.797 397.265 117.151ZM240.174 125.348C236.864 133.328 224.006 164.737 223.237 166.72C222.879 167.643 224.568 167.965 229.778 167.965H236.801L238.216 163.732L239.632 159.498L252.322 159.22L265.013 158.941L266.955 163.453L268.897 167.965H275.432C279.027 167.965 281.968 167.579 281.968 167.108C281.968 166.635 277.56 155.541 272.174 142.454L262.379 118.659L252.781 118.375L243.184 118.091L240.174 125.348ZM276.166 123.39L276.468 128.62L285.218 128.908L293.968 129.196V148.58V167.965H300.468H306.968V148.542V129.118H315.468H323.968V123.639V118.161H299.916H275.863L276.166 123.39ZM327.968 143.063V167.965H351.468H374.968V162.511V157.056L358.218 156.783L341.468 156.51V152.526V148.542L357.718 148.268L373.968 147.994V142.54V137.087H357.468H340.968V133.102V129.118H357.968H374.968V123.639V118.161H351.468H327.968V143.063ZM256.784 136.838C258.429 141.083 260.092 145.341 260.479 146.3C261.114 147.875 260.397 148.043 253.075 148.043C248.616 148.043 244.968 147.641 244.968 147.149C244.968 144.543 251.424 129.118 252.514 129.118C253.217 129.118 255.139 132.592 256.784 136.838Z" fill="#252626"/>
</svg>
